<?xml version="1.0" encoding="UTF-8"?>
<svg width="242px" height="236px" viewBox="0 0 242 236" version="1.1" xmlns="http://www.w3.org/2000/svg" xmlns:xlink="http://www.w3.org/1999/xlink">
    <!-- Generator: Sketch 61.2 (89653) - https://sketch.com -->
    <title>Group</title>
    <desc>Created with Sketch.</desc>
    <defs>
        <filter x="-1.2%" y="-1.7%" width="102.3%" height="103.3%" filterUnits="objectBoundingBox" id="filter-1">
            <feOffset dx="0" dy="2" in="SourceAlpha" result="shadowOffsetOuter1"></feOffset>
            <feGaussianBlur stdDeviation="2" in="shadowOffsetOuter1" result="shadowBlurOuter1"></feGaussianBlur>
            <feColorMatrix values="0 0 0 0 0.568627451   0 0 0 0 0.490196078   0 0 0 0 0.517647059  0 0 0 1 0" type="matrix" in="shadowBlurOuter1" result="shadowMatrixOuter1"></feColorMatrix>
            <feMerge>
                <feMergeNode in="shadowMatrixOuter1"></feMergeNode>
                <feMergeNode in="SourceGraphic"></feMergeNode>
            </feMerge>
        </filter>
    </defs>
    <g id="Page-1" stroke="none" stroke-width="1" fill="none" fill-rule="evenodd">
        <g id="Desktop" transform="translate(-391.000000, -482.000000)" fill-rule="nonzero">
            <g id="FORTUNE-TELLER1" filter="url(#filter-1)">
                <g id="Group" transform="translate(95.817143, 484.205714)">
                    <g transform="translate(299.885714, 0.000000)">
                        <circle id="Oval" fill="#DAD7C5" cx="116.297143" cy="116.736" r="116.297143"></circle>
                        <circle id="Oval" fill="#E1D3A2" cx="116.297143" cy="116.736" r="113.737143"></circle>
                        <circle id="Oval" fill="#C7B570" cx="116.297143" cy="116.736" r="95.8902857"></circle>
                        <path d="M155.282286,169.179429 L137.142857,144.457143 C145.554286,138.093714 150.966857,128.073143 150.966857,116.736 C150.966857,105.398857 145.481143,95.3051429 137.069714,88.9417143 L157.476571,66.3405714 L161.499429,70.5828571 L193.316571,42.2034286 L192.804571,41.6914286 L161.645714,69.5588571 L157.549714,65.2434286 L136.557714,88.5028571 C130.852571,84.4068571 123.904,81.9931429 116.297143,81.9931429 C101.888,81.9931429 89.5268571,90.7702857 84.2605714,103.277714 L53.9062857,88.6491429 L56.832,83.5291429 L20.6262857,61.0011429 L20.2605714,61.5862857 L55.8811429,83.6754286 L52.9554286,88.7954286 L84.0411429,103.789714 C82.5051429,107.739429 81.6274286,111.981714 81.6274286,116.443429 L47.9085714,115.565714 L48.4937143,109.714286 L6.21714286,104.009143 L6.144,104.740571 L47.6891429,110.299429 L47.104,116.224 L81.6274286,117.101714 C81.9931429,135.972571 97.3531429,151.186286 116.297143,151.186286 C123.904,151.186286 130.852571,148.772571 136.630857,144.603429 L154.258286,168.667429 L149.284571,171.812571 L170.642286,208.676571 L171.300571,208.310857 L150.235429,172.032 L155.282286,169.179429 Z" id="Path" fill="#E1D3A2"></path>
                        <path d="M171.227429,135.899429 L173.421714,129.389714 L129.974857,118.784 C130.048,118.125714 130.121143,117.467429 130.121143,116.736 C130.121143,109.129143 123.904,102.912 116.297143,102.912 C113.664,102.912 111.250286,103.643429 109.202286,104.886857 L87.7714286,66.7062857 L93.9154286,63.9268571 L74.3131429,18.2857143 L73.5085714,18.5782857 L92.8182857,63.488 L86.6011429,66.3405714 L108.544,105.325714 C104.96,107.812571 102.546286,111.981714 102.546286,116.662857 C102.546286,117.540571 102.619429,118.418286 102.765714,119.222857 L59.5382857,126.025143 L59.0994286,119.296 L9.43542857,121.782857 L9.43542857,122.660571 L58.2217143,120.173714 L58.6605714,126.976 L102.838857,120.027429 C104.301714,125.952 109.568,130.340571 115.931429,130.413714 L113.737143,174.153143 L107.008,173.202286 L99.2548571,222.281143 L100.059429,222.427429 L107.666286,174.153143 L114.468571,175.104 L116.736,130.413714 C117.174857,130.413714 117.613714,130.340571 118.052571,130.267429 L122.806857,173.787429 L116.077714,173.933714 L116.224,223.597714 L117.101714,223.597714 L116.955429,174.738286 L123.830857,174.592 L118.930286,130.121143 C124.342857,129.024 128.512,124.854857 129.682286,119.442286 L172.178286,129.828571 L169.984,136.192 L216.722286,153.088 L217.014857,152.283429 L171.227429,135.899429 Z" id="Path" fill="#FFFFFF"></path>
                    </g>
                </g>
            </g>
        </g>
    </g>
</svg>